<svg width="1920" height="105" viewBox="0 0 1920 105" fill="none" xmlns="http://www.w3.org/2000/svg">
<mask id="mask0_270_2159" style="mask-type:alpha" maskUnits="userSpaceOnUse" x="0" y="12" width="1920" height="87">
<rect y="12" width="1920" height="87" fill="#D9D9D9"/>
<rect y="12" width="1920" height="87" fill="url(#paint0_linear_270_2159)"/>
</mask>
<g mask="url(#mask0_270_2159)">
<g opacity="0.3">
<path d="M-455.761 833.217L-402.825 841.796C-19.5586 903.914 289.857 532.144 159.188 166.525L140.409 113.981C17.5883 -229.677 310.067 -578.49 669.874 -517.466L795.705 -496.125C1056.04 -451.971 1282.82 -676.459 1241.32 -937.229V-937.229" stroke="white"/>
<path d="M-428.498 856.101L-375.561 864.68C7.70504 926.798 317.121 555.028 186.452 189.409L167.673 136.865C44.852 -206.793 337.331 -555.606 697.138 -494.582L822.968 -473.241C1083.3 -429.087 1310.09 -653.575 1268.58 -914.345V-914.345" stroke="white"/>
<path d="M-401.232 878.984L-348.295 887.564C34.9707 949.681 344.387 577.911 213.717 212.292L194.938 159.748C72.1176 -183.91 364.596 -532.723 724.404 -471.699L850.234 -450.357C1110.57 -406.204 1337.35 -630.692 1295.85 -891.462V-891.462" stroke="white"/>
<path d="M-373.972 901.87L-321.036 910.449C62.2304 972.567 371.646 600.797 240.977 235.178L222.198 182.634C99.3774 -161.024 391.856 -509.837 751.663 -448.813L877.494 -427.472C1137.83 -383.318 1364.61 -607.806 1323.11 -868.576V-868.576" stroke="white"/>
<path d="M-346.707 924.753L-293.77 933.333C89.4961 995.45 398.912 623.68 268.243 258.061L249.464 205.517C126.643 -138.141 419.122 -486.954 778.929 -425.93L904.759 -404.588C1165.09 -360.435 1391.88 -584.923 1350.37 -845.693V-845.693" stroke="white"/>
<path d="M-319.445 947.641L-266.508 956.221C116.758 1018.34 426.174 646.568 295.504 280.95L276.725 228.405C153.905 -115.252 446.383 -464.066 806.191 -403.041L932.021 -381.7C1192.36 -337.546 1419.14 -562.034 1377.63 -822.805V-822.805" stroke="white"/>
<path d="M-292.181 970.522L-239.245 979.101C144.021 1041.22 453.437 669.449 322.768 303.83L303.989 251.286C181.168 -92.3717 473.647 -441.185 833.454 -380.161L959.285 -358.819C1219.62 -314.666 1446.4 -539.154 1404.9 -799.924V-799.924" stroke="white"/>
<path d="M-264.917 993.406L-211.981 1001.99C171.285 1064.1 480.701 692.333 350.032 326.714L331.253 274.17C208.432 -69.4877 500.911 -418.301 860.718 -357.277L986.548 -335.935C1246.88 -291.782 1473.67 -516.27 1432.16 -777.04V-777.04" stroke="white"/>
<path d="M-237.656 1016.29L-184.719 1024.87C198.547 1086.99 507.963 715.219 377.293 349.6L358.514 297.056C235.694 -46.6015 528.172 -395.415 887.98 -334.39L1013.81 -313.049C1274.14 -268.896 1500.93 -493.384 1459.42 -754.154V-754.154" stroke="white"/>
<path d="M-210.392 1039.17L-157.456 1047.75C225.811 1109.87 535.226 738.102 404.557 372.483L385.778 319.939C262.957 -23.7189 555.436 -372.532 915.243 -311.508L1041.07 -290.167C1301.41 -246.013 1528.19 -470.501 1486.69 -731.271V-731.271" stroke="white"/>
<path d="M-183.128 1062.06L-130.192 1070.64C253.074 1132.76 562.49 760.988 431.821 395.369L413.042 342.825C290.221 -0.832656 582.7 -349.646 942.507 -288.622L1068.34 -267.28C1328.67 -223.127 1555.46 -447.615 1513.95 -708.385V-708.385" stroke="white"/>
<path d="M-155.867 1084.94L-102.93 1093.52C280.336 1155.64 589.752 783.87 459.082 418.251L440.303 365.707C317.483 22.0497 609.961 -326.764 969.769 -265.739L1095.6 -244.398C1355.93 -200.245 1582.72 -424.733 1541.21 -685.503V-685.503" stroke="white"/>
<path d="M-128.603 1107.83L-75.6666 1116.41C307.6 1178.52 617.015 806.754 486.346 441.136L467.567 388.591C344.747 44.9339 637.225 -303.88 997.032 -242.855L1122.86 -221.514C1383.2 -177.36 1609.98 -401.848 1568.48 -662.619V-662.619" stroke="white"/>
<path d="M-101.339 1130.71L-48.4029 1139.29C334.863 1201.41 644.279 829.639 513.61 464.02L494.831 411.476C372.01 67.8182 664.489 -280.995 1024.3 -219.971L1150.13 -198.63C1410.46 -154.476 1637.24 -378.964 1595.74 -639.734V-639.734" stroke="white"/>
<path d="M-74.0766 1153.6L-21.1402 1162.18C362.126 1224.29 671.542 852.523 540.872 486.904L522.093 434.36C399.273 90.7027 691.751 -258.111 1051.56 -197.086L1177.39 -175.745C1437.72 -131.591 1664.51 -356.08 1623 -616.85V-616.85" stroke="white"/>
<path d="M-47.4575 1175.94L5.47893 1184.52C388.745 1246.64 698.161 874.866 567.492 509.248L548.713 456.703C425.892 113.046 718.371 -235.767 1078.18 -174.743L1204.01 -153.402C1464.34 -109.248 1691.13 -333.736 1649.62 -594.506V-594.506" stroke="white"/>
<path d="M-20.8384 1198.28L32.0981 1206.86C415.364 1268.98 724.78 897.21 594.111 531.591L575.332 479.047C452.511 135.389 744.99 -213.424 1104.8 -152.4L1230.63 -131.059C1490.96 -86.9049 1717.75 -311.393 1676.24 -572.163V-572.163" stroke="white"/>
<path d="M5.77493 1220.63L58.7114 1229.21C441.977 1291.32 751.393 919.553 620.724 553.935L601.945 501.39C479.124 157.733 771.603 -191.08 1131.41 -130.056L1257.24 -108.715C1517.58 -64.5612 1744.36 -289.049 1702.85 -549.819V-549.819" stroke="white"/>
<path d="M32.3941 1242.97L85.3305 1251.55C468.597 1313.67 778.012 941.895 647.343 576.276L628.564 523.732C505.744 180.074 798.222 -168.739 1158.03 -107.715L1283.86 -86.3735C1544.19 -42.2199 1770.98 -266.708 1729.47 -527.478V-527.478" stroke="white"/>
<path d="M59.0132 1265.31L111.95 1273.89C495.216 1336.01 804.632 964.236 673.962 598.618L655.183 546.073C532.363 202.416 824.841 -146.398 1184.65 -85.3731L1310.48 -64.0319C1570.81 -19.8783 1797.6 -244.366 1756.09 -505.137V-505.137" stroke="white"/>
<path d="M85.6323 1287.65L138.569 1296.23C521.835 1358.35 831.251 986.581 700.581 620.963L681.802 568.418C558.982 224.761 851.46 -124.053 1211.27 -63.0282L1337.1 -41.6869C1597.43 2.46667 1824.22 -222.021 1782.71 -482.792V-482.792" stroke="white"/>
<path d="M112.246 1309.99L165.182 1318.57C548.448 1380.69 857.864 1008.92 727.195 643.303L708.416 590.758C585.595 247.101 878.074 -101.713 1237.88 -40.6881L1363.71 -19.3468C1624.05 24.8068 1850.83 -199.681 1809.33 -460.452V-460.452" stroke="white"/>
<path d="M138.867 1332.34L191.803 1340.92C575.069 1403.03 884.485 1031.26 753.816 665.645L735.037 613.101C612.216 269.444 904.695 -79.3698 1264.5 -18.3453L1390.33 2.99593C1650.67 47.1495 1877.45 -177.339 1835.95 -438.109V-438.109" stroke="white"/>
<path d="M165.486 1354.68L218.422 1363.26C601.688 1425.38 911.104 1053.61 780.435 687.99L761.656 635.446C638.835 291.788 931.314 -57.0253 1291.12 3.99918L1416.95 25.3404C1677.29 69.494 1904.07 -154.994 1862.57 -415.764V-415.764" stroke="white"/>
<path d="M192.103 1377.02L245.039 1385.6C628.306 1447.72 937.721 1075.95 807.052 710.333L788.273 657.788C665.453 314.131 957.931 -34.6825 1317.74 26.342L1443.57 47.6832C1703.9 91.8368 1930.69 -132.651 1889.18 -393.422V-393.422" stroke="white"/>
<path d="M218.718 1399.37L271.655 1407.95C654.921 1470.06 964.337 1098.29 833.667 732.675L814.888 680.131C692.068 336.473 984.546 -12.3402 1344.35 48.6842L1470.18 70.0255C1730.52 114.179 1957.3 -110.309 1915.8 -371.079V-371.079" stroke="white"/>
<path d="M245.337 1421.71L298.274 1430.29C681.54 1492.41 990.956 1120.64 860.286 755.017L841.508 702.472C718.687 358.815 1011.17 10.0016 1370.97 71.026L1496.8 92.3673C1757.14 136.521 1983.92 -87.9672 1942.42 -348.737V-348.737" stroke="white"/>
<path d="M271.955 1444.05L324.891 1452.63C708.157 1514.75 1017.57 1142.98 886.904 777.361L868.125 724.817C745.304 381.159 1037.78 32.3458 1397.59 93.3703L1523.42 114.712C1783.76 158.865 2010.54 -65.623 1969.03 -326.393V-326.393" stroke="white"/>
<path d="M298.574 1466.4L351.51 1474.98C734.776 1537.09 1044.19 1165.32 913.523 799.704L894.744 747.159C771.923 403.502 1064.4 54.6886 1424.21 115.713L1550.04 137.054C1810.37 181.208 2037.16 -43.2802 1995.65 -304.05V-304.05" stroke="white"/>
</g>
</g>
<g opacity="0.5" clip-path="url(#clip0_270_2159)">
<path d="M162.435 47.0001C161.747 46.515 160.962 46.1866 160.133 46.0383C159.305 45.89 158.454 45.9252 157.641 46.1416L149.199 48.4037L149.526 45.4785C149.647 44.2038 149.456 42.9188 148.971 41.7338C148.486 40.5488 147.721 39.4992 146.741 38.675C145.761 37.8507 144.596 37.2765 143.346 37.0015C142.095 36.7265 140.796 36.759 139.561 37.0961C139.205 37.1923 138.885 37.3891 138.638 37.6629C138.391 37.9367 138.228 38.2759 138.169 38.6398L136.073 51.9208L131.722 53.0866C130.249 53.4813 128.993 54.445 128.23 55.7657C127.468 57.0864 127.261 58.6559 127.656 60.1289L131.129 73.0884C131.523 74.5614 132.487 75.8173 133.808 76.5798C135.128 77.3423 136.698 77.549 138.171 77.1543L161.739 70.8393C163.038 70.4907 164.174 69.6977 164.949 68.5982C165.723 67.4987 166.088 66.1623 165.98 64.8215L164.858 51.232C164.789 50.3921 164.536 49.5777 164.118 48.8464C163.699 48.1151 163.124 47.4848 162.435 47.0001ZM140.881 72.4594L137.179 73.4515C136.688 73.5831 136.164 73.5142 135.724 73.2601C135.284 73.0059 134.963 72.5873 134.831 72.0963L131.359 59.1368C131.227 58.6457 131.296 58.1226 131.55 57.6824C131.804 57.2421 132.223 56.9209 132.714 56.7893L136.417 55.7972L140.881 72.4594ZM161.07 51.5329L162.191 65.1224C162.228 65.5748 162.103 66.0256 161.838 66.3944C161.574 66.7633 161.187 67.0263 160.746 67.1366L144.584 71.4673L139.728 53.3425L141.727 40.6629C142.286 40.6751 142.836 40.803 143.343 41.0386C143.85 41.2742 144.303 41.6123 144.672 42.0316C145.042 42.4509 145.321 42.9423 145.491 43.4747C145.661 44.0071 145.719 44.5691 145.661 45.1251L145.389 48.0354C145.33 48.651 145.421 49.2718 145.654 49.8448C145.887 50.4177 146.254 50.9259 146.726 51.3258C147.198 51.7258 147.759 52.0056 148.363 52.1416C148.966 52.2775 149.593 52.2654 150.191 52.1064L158.633 49.8444C158.905 49.771 159.19 49.7585 159.467 49.8077C159.744 49.8569 160.007 49.9665 160.237 50.1289C160.471 50.2872 160.666 50.4951 160.81 50.7378C160.954 50.9805 161.043 51.252 161.07 51.5329Z" fill="white"/>
</g>
<g opacity="0.3" clip-path="url(#clip1_270_2159)">
<path d="M747.263 37.0279C745.99 36.1297 744.535 35.5218 743.002 35.2472C741.468 34.9725 739.893 35.0378 738.388 35.4385L722.758 39.6264L723.364 34.2108C723.588 31.8508 723.235 29.4719 722.337 27.2781C721.439 25.0843 720.022 23.1411 718.208 21.6152C716.394 20.0893 714.237 19.0261 711.922 18.517C709.607 18.0079 707.203 18.068 704.916 18.6922C704.257 18.8702 703.663 19.2345 703.206 19.7414C702.749 20.2484 702.448 20.8764 702.339 21.5501L698.457 46.1378L690.403 48.296C687.676 49.0267 685.35 50.8108 683.939 53.2559C682.527 55.7009 682.145 58.6066 682.875 61.3336L689.304 85.3261C690.035 88.0532 691.819 90.3783 694.264 91.7899C696.709 93.2015 699.615 93.5841 702.342 92.8534L745.974 81.1622C748.379 80.5169 750.482 79.0487 751.916 77.0132C753.351 74.9776 754.027 72.5035 753.826 70.0213L751.75 44.8625C751.622 43.3076 751.153 41.7998 750.378 40.4459C749.603 39.0921 748.539 37.9252 747.263 37.0279ZM707.36 84.1616L700.505 85.9984C699.596 86.242 698.627 86.1144 697.812 85.6439C696.997 85.1734 696.403 84.3983 696.159 83.4893L689.73 59.4969C689.487 58.5878 689.614 57.6193 690.085 56.8043C690.555 55.9893 691.33 55.3945 692.239 55.151L699.094 53.3142L707.36 84.1616ZM744.736 45.4195L746.811 70.5783C746.879 71.4159 746.648 72.2504 746.158 72.9333C745.668 73.6161 744.952 74.103 744.137 74.3072L714.215 82.3248L705.224 48.7697L708.926 25.2954C709.961 25.3181 710.979 25.5549 711.918 25.9911C712.856 26.4272 713.694 27.0532 714.379 27.8294C715.063 28.6057 715.579 29.5154 715.894 30.5011C716.209 31.4868 716.316 32.5272 716.209 33.5565L715.706 38.9445C715.596 40.0842 715.764 41.2335 716.195 42.2942C716.626 43.355 717.307 44.2957 718.181 45.0362C719.054 45.7766 720.093 46.2948 721.21 46.5464C722.327 46.7981 723.489 46.7757 724.595 46.4813L740.224 42.2935C740.728 42.1577 741.255 42.1346 741.768 42.2256C742.281 42.3166 742.768 42.5197 743.194 42.8202C743.627 43.1133 743.989 43.4982 744.255 43.9476C744.522 44.3969 744.686 44.8995 744.736 45.4195Z" fill="white"/>
</g>
<g opacity="0.3" clip-path="url(#clip2_270_2159)">
<path d="M1727.45 56.9307C1727.17 55.8968 1726.67 54.9372 1725.97 54.1196C1725.28 53.302 1724.42 52.6463 1723.44 52.1988L1713.32 47.5687L1716.02 44.9642C1717.17 43.8113 1718.03 42.3961 1718.51 40.8398C1719 39.2836 1719.1 37.6328 1718.81 36.0291C1718.51 34.4253 1717.84 32.9165 1716.83 31.6321C1715.83 30.3476 1714.53 29.3259 1713.04 28.6545C1712.62 28.46 1712.14 28.393 1711.68 28.4613C1711.21 28.5296 1710.78 28.7304 1710.42 29.0397L1697.59 40.3697L1692.38 37.9836C1690.61 37.1757 1688.6 37.1023 1686.78 37.7795C1684.96 38.4566 1683.48 39.829 1682.67 41.5945L1675.57 57.1276C1674.76 58.8932 1674.69 60.9073 1675.36 62.727C1676.04 64.5467 1677.41 66.0229 1679.18 66.8308L1707.43 79.7565C1708.98 80.4686 1710.74 80.612 1712.39 80.1619C1714.05 79.7118 1715.49 78.6967 1716.47 77.2931L1726.4 63.0495C1727.01 62.1693 1727.42 61.1649 1727.6 60.1076C1727.79 59.0502 1727.73 57.9657 1727.45 56.9307ZM1685.65 64.4235L1681.21 62.3927C1680.62 62.1234 1680.16 61.6314 1679.94 61.0248C1679.71 60.4183 1679.74 59.7469 1680 59.1583L1687.11 43.6253C1687.38 43.0367 1687.87 42.5793 1688.48 42.3536C1689.09 42.1279 1689.76 42.1523 1690.35 42.4216L1694.78 44.4524L1685.65 64.4235ZM1722.43 60.2707L1712.51 74.5142C1712.18 74.9879 1711.69 75.3287 1711.13 75.476C1710.57 75.6233 1709.98 75.5674 1709.46 75.3184L1690.08 66.4542L1700.02 44.7301L1712.27 33.9116C1712.81 34.377 1713.25 34.949 1713.56 35.5914C1713.86 36.2338 1714.03 36.9328 1714.05 37.6441C1714.08 38.3554 1713.95 39.0637 1713.69 39.7242C1713.42 40.3847 1713.02 40.9831 1712.51 41.4816L1709.89 44.1167C1709.33 44.6727 1708.91 45.3554 1708.68 46.1064C1708.44 46.8575 1708.39 47.6546 1708.53 48.4297C1708.67 49.2049 1708.99 49.935 1709.47 50.5579C1709.95 51.1808 1710.58 51.6779 1711.29 52.0068L1721.41 56.6369C1721.74 56.7855 1722.03 57.0042 1722.26 57.2774C1722.49 57.5506 1722.66 57.8716 1722.76 58.2176C1722.86 58.5624 1722.88 58.9252 1722.82 59.2801C1722.77 59.635 1722.64 59.9733 1722.43 60.2707Z" fill="white"/>
</g>
<g opacity="0.6" clip-path="url(#clip3_270_2159)">
<path d="M1194.03 29.1652C1194.55 28.7973 1195.14 28.5483 1195.77 28.4358C1196.4 28.3234 1197.05 28.3501 1197.66 28.5142L1204.06 30.2294L1203.82 28.0114C1203.72 27.0448 1203.87 26.0705 1204.24 25.1719C1204.6 24.2734 1205.18 23.4775 1205.93 22.8526C1206.67 22.2276 1207.55 21.7922 1208.5 21.5836C1209.45 21.3751 1210.43 21.3997 1211.37 21.6554C1211.64 21.7283 1211.88 21.8775 1212.07 22.0851C1212.26 22.2928 1212.38 22.55 1212.43 22.8259L1214.02 32.8963L1217.32 33.7803C1218.43 34.0796 1219.38 34.8103 1219.96 35.8117C1220.54 36.8131 1220.7 38.0032 1220.4 39.1201L1217.77 48.9467C1217.47 50.0637 1216.74 51.016 1215.73 51.5941C1214.73 52.1723 1213.54 52.329 1212.43 52.0297L1194.56 47.2413C1193.57 46.977 1192.71 46.3757 1192.12 45.542C1191.53 44.7083 1191.26 43.695 1191.34 42.6784L1192.19 32.374C1192.24 31.7372 1192.43 31.1196 1192.75 30.5651C1193.07 30.0106 1193.5 29.5327 1194.03 29.1652ZM1210.37 48.4698L1213.18 49.2221C1213.55 49.3219 1213.95 49.2696 1214.28 49.0769C1214.61 48.8842 1214.86 48.5668 1214.96 48.1944L1217.59 38.3678C1217.69 37.9955 1217.64 37.5988 1217.45 37.265C1217.25 36.9312 1216.94 36.6876 1216.56 36.5879L1213.76 35.8356L1210.37 48.4698ZM1195.06 32.6021L1194.21 42.9065C1194.18 43.2495 1194.28 43.5913 1194.48 43.871C1194.68 44.1507 1194.97 44.3501 1195.31 44.4337L1207.56 47.7175L1211.25 33.9743L1209.73 24.3599C1209.31 24.3692 1208.89 24.4662 1208.5 24.6448C1208.12 24.8234 1207.78 25.0798 1207.5 25.3977C1207.22 25.7157 1207 26.0883 1206.88 26.492C1206.75 26.8957 1206.7 27.3218 1206.75 27.7434L1206.95 29.9502C1207 30.417 1206.93 30.8877 1206.75 31.3221C1206.58 31.7566 1206.3 32.1419 1205.94 32.4451C1205.58 32.7484 1205.16 32.9606 1204.7 33.0637C1204.24 33.1668 1203.76 33.1576 1203.31 33.037L1196.91 31.3218C1196.7 31.2662 1196.49 31.2567 1196.28 31.294C1196.07 31.3313 1195.87 31.4144 1195.69 31.5375C1195.52 31.6576 1195.37 31.8152 1195.26 31.9993C1195.15 32.1833 1195.08 32.3892 1195.06 32.6021Z" fill="white"/>
</g>
<defs>
<linearGradient id="paint0_linear_270_2159" x1="-3.12924e-06" y1="11.5972" x2="3.02088" y2="142.751" gradientUnits="userSpaceOnUse">
<stop stop-color="#F6EBE6"/>
<stop offset="1" stop-color="#AEE1F9"/>
</linearGradient>
<clipPath id="clip0_270_2159">
<rect width="46" height="46" fill="white" transform="translate(118 38.9053) rotate(-15)"/>
</clipPath>
<clipPath id="clip1_270_2159">
<rect width="85.1616" height="85.1616" fill="white" transform="translate(665 22.041) rotate(-15)"/>
</clipPath>
<clipPath id="clip2_270_2159">
<rect width="58.5669" height="58.5669" fill="white" transform="translate(1690.42 12.9355) rotate(24.5879)"/>
</clipPath>
<clipPath id="clip3_270_2159">
<rect width="34.8798" height="34.8798" fill="white" transform="matrix(-0.965926 -0.258819 -0.258819 0.965926 1227.72 23.0273)"/>
</clipPath>
</defs>
</svg>
